<?xml version="1.0" encoding="UTF-8"?>
<svg id="Camada_2" data-name="Camada 2" xmlns="http://www.w3.org/2000/svg" viewBox="0 0 519.2 519.2">
  <defs>
    <style>
      .cls-1, .cls-2 {
        stroke-width: 0px;
      }

      .cls-2 {
        fill: #fff;
      }
    </style>
  </defs>
  <g id="logos">
    <g>
      <rect class="cls-1" width="519.2" height="519.2" rx="60.15" ry="60.15"/>
      <g>
        <path class="cls-2" d="m330.84,166.95l-34.71,54.94-32.47-54.94h-44.28l.08.13h-33.8v105.82c0,23.75-2.44,31.19-3.49,33.28l-.1.21c-1.78,3.81-4.87,6.85-8.62,8.54-5.23,2.3-10.77,3.45-16.48,3.31h-.14s-.14,0-.14,0c-6.17.13-12.26-1.06-18.16-3.46-4.05-1.56-7.52-4.47-9.69-8.07-1.01-1.74-3.36-7.79-3.36-26.31v-113.32h-39.25v116.09c-.03,19.94,2.76,34.04,8.53,43.08,5.84,9.16,14.73,15.94,26.5,20.18,11.05,3.85,22.57,5.8,34.19,5.8.38,0,.76,0,1.14,0,14.1-.01,26.15-2.59,35.76-7.62,9.54-4.92,17.43-12.42,22.8-21.68,5.36-9.17,7.96-23.69,7.96-44.38v-105.28l50.21,84.99-58.68,94h42.91l36.71-59.18,35.08,59.12h43.9l-56.32-95.53,56.51-89.72h-42.59Z"/>
        <rect class="cls-2" x="386.88" y="305.9" width="46.07" height="46.35"/>
      </g>
    </g>
  </g>
</svg>