<svg width="113" height="113" viewBox="0 0 113 113" fill="none"
  xmlns="http://www.w3.org/2000/svg">
  <path d="M99.85 0H13.15C5.88745 0 0 5.88745 0 13.15V99.85C0 107.113 5.88745 113 13.15 113H99.85C107.113 113 113 107.113 113 99.85V13.15C113 5.88745 107.113 0 99.85 0Z" fill="#29265B"/>
  <path d="M52.41 69.55H32.12C25.16 69.55 19.5 63.89 19.5 56.93C19.5 49.97 25.16 44.31 32.12 44.31H52.41C59.37 44.31 65.03 49.97 65.03 56.93C65.03 63.89 59.37 69.55 52.41 69.55ZM32.12 45.1C25.6 45.1 20.29 50.41 20.29 56.93C20.29 63.45 25.6 68.76 32.12 68.76H52.41C58.93 68.76 64.24 63.45 64.24 56.93C64.24 50.41 58.93 45.1 52.41 45.1H32.12Z" fill="white"/>
  <path d="M52.49 67.49C66.11 67.43 66.11 46.72 52.49 46.66C38.87 46.72 38.87 67.43 52.49 67.49Z" fill="white"/>
  <path d="M90.7 46.53C92.57 48.58 93.5 51.42 93.5 55.05V69.37H85.44V55.51C85.44 53.87 85.03 52.58 84.21 51.66C83.39 50.74 82.26 50.27 80.82 50.27C79.25 50.27 77.98 50.8 77.02 51.86C76.06 52.92 75.58 54.31 75.58 56.02V69.37H67.52V44.01H74.5L75.01 46.99C76 45.86 77.19 44.99 78.58 44.37C79.97 43.75 81.5 43.45 83.17 43.45C86.32 43.45 88.83 44.48 90.69 46.53H90.7Z" fill="white"/>
</svg>
