<svg width="113" height="113" viewBox="0 0 113 113" fill="none" xmlns="http://www.w3.org/2000/svg">
<path d="M99.85 0H13.15C5.88745 0 0 5.88745 0 13.15V99.85C0 107.113 5.88745 113 13.15 113H99.85C107.113 113 113 107.113 113 99.85V13.15C113 5.88745 107.113 0 99.85 0Z" fill="#FF7F13"/>
<path d="M32.11 48.42C30.86 47.24 30.23 45.75 30.23 43.93C30.23 42.11 30.86 40.62 32.11 39.44C33.36 38.26 34.97 37.68 36.93 37.68C38.89 37.68 40.42 38.27 41.67 39.44C42.92 40.62 43.54 42.11 43.54 43.93C43.54 45.75 42.92 47.24 41.67 48.42C40.42 49.6 38.84 50.18 36.93 50.18C35.02 50.18 33.36 49.59 32.11 48.42ZM41.63 60.07C42.85 61.27 43.47 62.85 43.47 64.81C43.47 66.43 43.13 68.18 42.44 70.07C41.75 71.96 40.45 74.93 38.54 79H32.29L34.35 70.18C33.08 69.84 32.07 69.16 31.34 68.16C30.61 67.16 30.24 65.94 30.24 64.52C30.24 62.66 30.85 61.15 32.08 60C33.3 58.85 34.9 58.27 36.86 58.27C38.82 58.27 40.41 58.87 41.64 60.07H41.63Z" fill="black"/>
<path d="M48.39 66.14L52.8 58.2C54.56 59.28 56.61 60.11 58.94 60.7C61.27 61.29 63.58 61.58 65.89 61.58C69.08 61.58 70.67 60.72 70.67 59.01C70.67 58.13 70.23 57.47 69.35 57.02C68.47 56.58 67 56.29 64.94 56.14C60.33 55.9 56.67 54.74 53.95 52.68C51.23 50.62 49.87 47.93 49.87 44.59C49.87 40.96 51.34 38.08 54.28 35.95C57.22 33.82 61.19 32.75 66.19 32.75C69.03 32.75 71.74 33.1 74.31 33.78C76.88 34.47 79.1 35.42 80.96 36.65L76.47 44.37C73.72 42.8 70.46 42.02 66.69 42.02C62.92 42.02 61.1 42.9 61.1 44.67C61.1 45.4 61.48 45.97 62.24 46.36C63 46.75 64.29 47.05 66.1 47.24C71.29 47.63 75.25 48.81 77.97 50.77C80.69 52.73 82.05 55.48 82.05 59.01C82.05 62.74 80.55 65.66 77.56 67.8C74.57 69.94 70.43 71 65.13 71C58.71 71 53.12 69.38 48.37 66.15L48.39 66.14Z" fill="white"/>
</svg>
