<svg width="113" height="113" viewBox="0 0 113 113" fill="none" xmlns="http://www.w3.org/2000/svg">
<path d="M99.85 0H13.15C5.88745 0 0 5.88745 0 13.15V99.85C0 107.113 5.88745 113 13.15 113H99.85C107.113 113 113 107.113 113 99.85V13.15C113 5.88745 107.113 0 99.85 0Z" fill="#009580"/>
<path d="M53.41 75.81C50.69 77.17 47.62 77.85 44.2 77.85C40.41 77.85 37.41 76.79 35.2 74.65C33 72.52 31.9 69.09 31.9 64.35V51.21H26V42.42H31.9V33.78L42.86 32.58V42.42H51.5V51.21H42.86V64.35C42.86 65.76 43.21 66.8 43.91 67.48C44.61 68.16 45.57 68.5 46.79 68.5C48.15 68.5 49.48 68.17 50.8 67.52L53.4 75.81H53.41Z" fill="white"/>
<path d="M82.85 42.53C84.44 43.12 85.82 43.97 87 45.1L82.36 53.18C81.38 52.57 80.46 52.13 79.62 51.84C78.78 51.56 77.89 51.42 76.95 51.42C74.61 51.42 72.76 52.17 71.4 53.67C70.04 55.17 69.36 57.37 69.36 60.28V77.15H58.33V42.43H67.96L68.8 46.79C71.05 43.37 74.14 41.66 78.08 41.66C79.67 41.66 81.27 41.95 82.86 42.54L82.85 42.53Z" fill="white"/>
</svg>
